<?xml version="1.0" encoding="UTF-8" standalone="no"?>
<!-- Created with Inkscape (http://www.inkscape.org/) -->

<svg
   xmlns:dc="http://purl.org/dc/elements/1.1/"
   xmlns:cc="http://creativecommons.org/ns#"
   xmlns:rdf="http://www.w3.org/1999/02/22-rdf-syntax-ns#"
   xmlns:svg="http://www.w3.org/2000/svg"
   xmlns="http://www.w3.org/2000/svg"
   xmlns:sodipodi="http://sodipodi.sourceforge.net/DTD/sodipodi-0.dtd"
   xmlns:inkscape="http://www.inkscape.org/namespaces/inkscape"
   width="600"
   height="314"
   viewBox="0 0 158.75 83.07917"
   version="1.1"
   id="svg8"
   sodipodi:docname="ff15card.svg"
   enable-background="new"
   inkscape:version="0.92.3 (2405546, 2018-03-11)"
   inkscape:export-filename="/home/jesse/Code/fightfor15osu/images/ff15osu-card-v4.png"
   inkscape:export-xdpi="499.87262"
   inkscape:export-ydpi="499.87262">
  <defs
     id="defs2">
    <filter
       inkscape:collect="always"
       style="color-interpolation-filters:sRGB"
       id="filter4652">
      <feBlend
         inkscape:collect="always"
         mode="multiply"
         in2="BackgroundImage"
         id="feBlend4654" />
    </filter>
    <filter
       inkscape:collect="always"
       style="color-interpolation-filters:sRGB"
       id="filter4656">
      <feBlend
         inkscape:collect="always"
         mode="multiply"
         in2="BackgroundImage"
         id="feBlend4658" />
    </filter>
  </defs>
  <sodipodi:namedview
     id="base"
     pagecolor="#ffffff"
     bordercolor="#666666"
     borderopacity="1.0"
     inkscape:pageopacity="0.0"
     inkscape:pageshadow="2"
     inkscape:zoom="1.979899"
     inkscape:cx="257.24992"
     inkscape:cy="151.03074"
     inkscape:document-units="mm"
     inkscape:current-layer="layer2"
     showgrid="true"
     units="px"
     objecttolerance="2"
     inkscape:snap-global="false"
     inkscape:window-width="1920"
     inkscape:window-height="1006"
     inkscape:window-x="2560"
     inkscape:window-y="0"
     inkscape:window-maximized="1"
     inkscape:snap-bbox="false" />
  <metadata
     id="metadata5">
    <rdf:RDF>
      <cc:Work
         rdf:about="">
        <dc:format>image/svg+xml</dc:format>
        <dc:type
           rdf:resource="http://purl.org/dc/dcmitype/StillImage" />
        <dc:title></dc:title>
      </cc:Work>
    </rdf:RDF>
  </metadata>
  <g
     inkscape:label="Layer 1"
     inkscape:groupmode="layer"
     id="layer1"
     transform="translate(0,-213.92081)"
     style="display:none">
    <rect
       style="opacity:1;fill:#d92e2e;fill-opacity:0;stroke-width:0.26881692"
       id="rect3731"
       width="158.75"
       height="84.666664"
       x="-6.0159282e-14"
       y="214.97914" />
  </g>
  <g
     inkscape:groupmode="layer"
     id="layer2"
     inkscape:label="Layer 2">
    <path
       style="opacity:0.93999999;fill:none;fill-opacity:0;stroke:none;stroke-width:0.50645667;stroke-miterlimit:4;stroke-dasharray:none;stroke-opacity:1"
       d="M 2.0348812,156.50428 V 0.94079008 H 300.02988 598.02488 V 156.50428 312.06777 H 300.02988 2.0348812 Z"
       id="path4548"
       inkscape:connector-curvature="0"
       transform="scale(0.26458333)" />
    <path
       style="opacity:1;fill:none;fill-opacity:0;stroke:none;stroke-width:0.25579926;stroke-miterlimit:4;stroke-dasharray:none;stroke-opacity:1"
       d="M 2.0348812,156.50428 V 0.94079008 H 300.02988 598.02488 V 156.50428 312.06777 H 300.02988 2.0348812 Z"
       id="path4550"
       inkscape:connector-curvature="0"
       transform="scale(0.26458333)" />
    <rect
       style="opacity:1;fill:#d92e2e;fill-opacity:1;stroke:none;stroke-width:0.13411283;stroke-miterlimit:4;stroke-dasharray:none;stroke-opacity:1"
       id="rect4570"
       width="158.88364"
       height="83.089912"
       x="1.162729e-08"
       y="-0.010744833" />
    <rect
       style="opacity:1;fill:#ffffff;fill-opacity:1;stroke:none;stroke-width:0.1327464;stroke-miterlimit:4;stroke-dasharray:none;stroke-opacity:1"
       id="rect4572"
       width="87.3125"
       height="83.089905"
       x="71.4375"
       y="-0.010744833" />
    <flowRoot
       xml:space="preserve"
       id="flowRoot4575"
       style="font-style:normal;font-variant:normal;font-weight:normal;font-stretch:normal;font-size:40px;line-height:80.80000281%;font-family:Lato;-inkscape-font-specification:Lato;letter-spacing:0px;word-spacing:0px;fill:#000000;fill-opacity:1;stroke:none"
       transform="matrix(0.26458333,0,0,0.26458333,0.26726953,6.8153729)"><flowRegion
         id="flowRegion4577"
         style="font-style:normal;font-variant:normal;font-weight:normal;font-stretch:normal;line-height:80.80000281%;font-family:Lato;-inkscape-font-specification:Lato"><rect
           id="rect4579"
           width="243.95184"
           height="230.81985"
           x="15.152288"
           y="42.77404"
           style="font-style:normal;font-variant:normal;font-weight:normal;font-stretch:normal;line-height:80.80000281%;font-family:Lato;-inkscape-font-specification:Lato" /></flowRegion><flowPara
         style="font-style:normal;font-variant:normal;font-weight:bold;font-stretch:normal;font-size:26.66666794px;line-height:80.80000281%;font-family:Lato;-inkscape-font-specification:'Lato Bold';fill:#ffffff;fill-opacity:1"
         id="flowPara4583">No Ohio State student, employee, or contractor should be struggling to get by.</flowPara></flowRoot>    <flowRoot
       xml:space="preserve"
       id="flowRoot4610"
       style="font-style:normal;font-weight:normal;font-size:40px;line-height:1.25;font-family:sans-serif;letter-spacing:0px;word-spacing:0px;fill:#000000;fill-opacity:1;stroke:none"
       transform="matrix(0.26458333,0,0,0.26458333,1.2758852,-1.3363476)"><flowRegion
         id="flowRegion4612"><rect
           id="rect4614"
           width="250.50508"
           height="47.776646"
           x="300"
           y="24" /></flowRegion><flowPara
         id="flowPara4616"
         style="font-style:normal;font-variant:normal;font-weight:bold;font-stretch:normal;font-family:Lato;-inkscape-font-specification:'Lato Bold';text-align:center;letter-spacing:1.22000146px;text-anchor:middle">FIGHT FOR</flowPara></flowRoot>    <g
       aria-label="OHIO STATE"
       transform="matrix(0.26458333,0,0,0.26458333,1.7372521,55.057523)"
       style="font-style:normal;font-weight:normal;font-size:40px;line-height:1.25;font-family:sans-serif;letter-spacing:0px;word-spacing:0px;fill:#000000;fill-opacity:1;stroke:none"
       id="flowRoot4610-5">
      <path
         d="m 339.4073,46.62 q 0,3.16 -1.1,5.88 -1.08,2.72 -3.06,4.74 -1.98,2 -4.78,3.14 -2.78,1.14 -6.18,1.14 -3.4,0 -6.2,-1.14 -2.8,-1.14 -4.8,-3.14 -1.98,-2.02 -3.08,-4.74 -1.08,-2.72 -1.08,-5.88 0,-3.16 1.08,-5.88 1.1,-2.72 3.08,-4.72 2,-2 4.8,-3.14 2.8,-1.14 6.2,-1.14 3.4,0 6.18,1.16 2.8,1.14 4.78,3.14 1.98,2 3.06,4.72 1.1,2.72 1.1,5.86 z m -6.92,0 q 0,-2.16 -0.56,-3.88 -0.56,-1.74 -1.62,-2.94 -1.04,-1.2 -2.56,-1.84 -1.52,-0.64 -3.46,-0.64 -1.96,0 -3.5,0.64 -1.52,0.64 -2.58,1.84 -1.04,1.2 -1.6,2.94 -0.56,1.72 -0.56,3.88 0,2.18 0.56,3.92 0.56,1.72 1.6,2.92 1.06,1.2 2.58,1.84 1.54,0.62 3.5,0.62 1.94,0 3.46,-0.62 1.52,-0.64 2.56,-1.84 1.06,-1.2 1.62,-2.92 0.56,-1.74 0.56,-3.92 z"
         style="font-style:normal;font-variant:normal;font-weight:900;font-stretch:normal;font-family:Lato;-inkscape-font-specification:'Lato Heavy';text-align:center;text-anchor:middle"
         id="path4675"
         inkscape:connector-curvature="0" />
      <path
         d="m 368.82543,61.2 h -6.8 V 48.88 h -11.84 V 61.2 h -6.8 V 32.06 h 6.8 v 12.18 h 11.84 V 32.06 h 6.8 z"
         style="font-style:normal;font-variant:normal;font-weight:900;font-stretch:normal;font-family:Lato;-inkscape-font-specification:'Lato Heavy';text-align:center;text-anchor:middle"
         id="path4677"
         inkscape:connector-curvature="0" />
      <path
         d="m 381.27918,61.2 h -6.8 V 32.06 h 6.8 z"
         style="font-style:normal;font-variant:normal;font-weight:900;font-stretch:normal;font-family:Lato;-inkscape-font-specification:'Lato Heavy';text-align:center;text-anchor:middle"
         id="path4679"
         inkscape:connector-curvature="0" />
      <path
         d="m 415.50105,46.62 q 0,3.16 -1.1,5.88 -1.08,2.72 -3.06,4.74 -1.98,2 -4.78,3.14 -2.78,1.14 -6.18,1.14 -3.4,0 -6.2,-1.14 -2.8,-1.14 -4.8,-3.14 -1.98,-2.02 -3.08,-4.74 -1.08,-2.72 -1.08,-5.88 0,-3.16 1.08,-5.88 1.1,-2.72 3.08,-4.72 2,-2 4.8,-3.14 2.8,-1.14 6.2,-1.14 3.4,0 6.18,1.16 2.8,1.14 4.78,3.14 1.98,2 3.06,4.72 1.1,2.72 1.1,5.86 z m -6.92,0 q 0,-2.16 -0.56,-3.88 -0.56,-1.74 -1.62,-2.94 -1.04,-1.2 -2.56,-1.84 -1.52,-0.64 -3.46,-0.64 -1.96,0 -3.5,0.64 -1.52,0.64 -2.58,1.84 -1.04,1.2 -1.6,2.94 -0.56,1.72 -0.56,3.88 0,2.18 0.56,3.92 0.56,1.72 1.6,2.92 1.06,1.2 2.58,1.84 1.54,0.62 3.5,0.62 1.94,0 3.46,-0.62 1.52,-0.64 2.56,-1.84 1.06,-1.2 1.62,-2.92 0.56,-1.74 0.56,-3.92 z"
         style="font-style:normal;font-variant:normal;font-weight:900;font-stretch:normal;font-family:Lato;-inkscape-font-specification:'Lato Heavy';text-align:center;text-anchor:middle"
         id="path4681"
         inkscape:connector-curvature="0" />
      <path
         d="m 444.79793,37.98 q -0.3,0.48 -0.64,0.72 -0.32,0.24 -0.84,0.24 -0.46,0 -1,-0.28 -0.52,-0.3 -1.2,-0.66 -0.66,-0.36 -1.52,-0.64 -0.86,-0.3 -1.96,-0.3 -1.9,0 -2.84,0.82 -0.92,0.8 -0.92,2.18 0,0.88 0.56,1.46 0.56,0.58 1.46,1 0.92,0.42 2.08,0.78 1.18,0.34 2.4,0.78 1.22,0.42 2.38,1 1.18,0.58 2.08,1.48 0.92,0.9 1.48,2.2 0.56,1.28 0.56,3.1 0,2.02 -0.7,3.78 -0.7,1.76 -2.04,3.08 -1.32,1.3 -3.28,2.06 -1.94,0.74 -4.42,0.74 -1.36,0 -2.78,-0.28 -1.4,-0.28 -2.72,-0.78 -1.32,-0.52 -2.48,-1.22 -1.16,-0.7 -2.02,-1.56 l 2,-3.16 q 0.24,-0.34 0.62,-0.56 0.4,-0.24 0.86,-0.24 0.6,0 1.2,0.38 0.62,0.38 1.38,0.84 0.78,0.46 1.78,0.84 1,0.38 2.36,0.38 1.84,0 2.86,-0.8 1.02,-0.82 1.02,-2.58 0,-1.02 -0.56,-1.66 -0.56,-0.64 -1.48,-1.06 -0.9,-0.42 -2.06,-0.74 -1.16,-0.32 -2.38,-0.7 -1.22,-0.4 -2.38,-0.96 -1.16,-0.58 -2.08,-1.5 -0.9,-0.94 -1.46,-2.32 -0.56,-1.4 -0.56,-3.44 0,-1.64 0.66,-3.2 0.66,-1.56 1.94,-2.78 1.28,-1.22 3.14,-1.94 1.86,-0.74 4.26,-0.74 1.34,0 2.6,0.22 1.28,0.2 2.42,0.62 1.14,0.4 2.12,0.98 1,0.56 1.78,1.28 z"
         style="font-style:normal;font-variant:normal;font-weight:900;font-stretch:normal;font-family:Lato;-inkscape-font-specification:'Lato Heavy';text-align:center;text-anchor:middle"
         id="path4683"
         inkscape:connector-curvature="0" />
      <path
         d="m 471.82543,32.06 v 5.36 h -8.2 V 61.2 h -6.76 V 37.42 h -8.2 v -5.36 z"
         style="font-style:normal;font-variant:normal;font-weight:900;font-stretch:normal;font-family:Lato;-inkscape-font-specification:'Lato Heavy';text-align:center;text-anchor:middle"
         id="path4685"
         inkscape:connector-curvature="0" />
      <path
         d="m 498.58793,61.2 h -5.24 q -0.88,0 -1.42,-0.4 -0.54,-0.42 -0.82,-1.06 l -1.72,-5.08 h -11.08 l -1.72,5.08 q -0.22,0.56 -0.8,1.02 -0.56,0.44 -1.4,0.44 h -5.28 l 11.28,-29.14 h 6.92 z m -18.72,-11.14 h 7.96 l -2.68,-7.98 q -0.3,-0.76 -0.64,-1.78 -0.34,-1.04 -0.68,-2.24 -0.32,1.22 -0.66,2.26 -0.32,1.04 -0.62,1.8 z"
         style="font-style:normal;font-variant:normal;font-weight:900;font-stretch:normal;font-family:Lato;-inkscape-font-specification:'Lato Heavy';text-align:center;text-anchor:middle"
         id="path4687"
         inkscape:connector-curvature="0" />
      <path
         d="m 519.01293,32.06 v 5.36 h -8.2 V 61.2 h -6.76 V 37.42 h -8.2 v -5.36 z"
         style="font-style:normal;font-variant:normal;font-weight:900;font-stretch:normal;font-family:Lato;-inkscape-font-specification:'Lato Heavy';text-align:center;text-anchor:middle"
         id="path4689"
         inkscape:connector-curvature="0" />
      <path
         d="m 541.20793,32.06 v 5.2 h -11.96 v 6.8 h 9.16 v 5 h -9.16 V 56 h 11.96 v 5.2 h -18.76 V 32.06 Z"
         style="font-style:normal;font-variant:normal;font-weight:900;font-stretch:normal;font-family:Lato;-inkscape-font-specification:'Lato Heavy';text-align:center;text-anchor:middle"
         id="path4691"
         inkscape:connector-curvature="0" />
    </g>
    <g
       id="g4673"
       transform="translate(1.2477413,0.85882193)">
      <flowRoot
         transform="matrix(0.26458333,0,0,0.26458333,-0.60506169,-2.487242)"
         style="font-style:normal;font-weight:normal;font-size:40px;line-height:1.25;font-family:sans-serif;text-align:center;letter-spacing:0px;word-spacing:0px;text-anchor:middle;fill:#d92e2e;fill-opacity:1;stroke:none;filter:url(#filter4656)"
         id="flowRoot4618"
         xml:space="preserve"><flowRegion
           style="text-align:center;text-anchor:middle;fill:#d92e2e;fill-opacity:1"
           id="flowRegion4620"><rect
             style="text-align:center;text-anchor:middle;fill:#d92e2e;fill-opacity:1"
             y="124"
             x="380"
             height="70"
             width="100.00001"
             id="rect4622" /></flowRegion><flowPara
           style="font-style:normal;font-variant:normal;font-weight:900;font-stretch:normal;font-size:53.33333588px;font-family:Lato;-inkscape-font-specification:'Lato Heavy';text-align:center;text-anchor:middle;fill:#d92e2e;fill-opacity:1"
           id="flowPara4624">$15</flowPara></flowRoot>    </g>
    <circle
       transform="translate(1.2477413,0.85882194)"
       r="17.197916"
       cy="38.35384"
       cx="112.98177"
       id="path4650"
       style="opacity:1;fill:none;fill-opacity:1;stroke:#d92e2e;stroke-width:1.190625;stroke-miterlimit:4;stroke-dasharray:none;stroke-opacity:1;filter:url(#filter4652)" />
  </g>
</svg>
