<?xml version="1.0" encoding="UTF-8" standalone="no"?>
<!-- Created with Inkscape (http://www.inkscape.org/) -->

<svg
   xmlns:dc="http://purl.org/dc/elements/1.1/"
   xmlns:cc="http://creativecommons.org/ns#"
   xmlns:rdf="http://www.w3.org/1999/02/22-rdf-syntax-ns#"
   xmlns:svg="http://www.w3.org/2000/svg"
   xmlns="http://www.w3.org/2000/svg"
   xmlns:sodipodi="http://sodipodi.sourceforge.net/DTD/sodipodi-0.dtd"
   xmlns:inkscape="http://www.inkscape.org/namespaces/inkscape"
   width="200"
   height="200"
   viewBox="0 0 52.916665 52.916668"
   version="1.1"
   id="svg8"
   inkscape:version="0.92.3 (2405546, 2018-03-11)"
   sodipodi:docname="favicon.svg">
  <defs
     id="defs2" />
  <sodipodi:namedview
     id="base"
     pagecolor="#ffffff"
     bordercolor="#666666"
     borderopacity="1.0"
     inkscape:pageopacity="0.0"
     inkscape:pageshadow="2"
     inkscape:zoom="2.8"
     inkscape:cx="34.431134"
     inkscape:cy="106.37378"
     inkscape:document-units="mm"
     inkscape:current-layer="layer1"
     showgrid="false"
     units="px"
     inkscape:window-width="2560"
     inkscape:window-height="1187"
     inkscape:window-x="0"
     inkscape:window-y="55"
     inkscape:window-maximized="1" />
  <metadata
     id="metadata5">
    <rdf:RDF>
      <cc:Work
         rdf:about="">
        <dc:format>image/svg+xml</dc:format>
        <dc:type
           rdf:resource="http://purl.org/dc/dcmitype/StillImage" />
        <dc:title></dc:title>
      </cc:Work>
    </rdf:RDF>
  </metadata>
  <g
     inkscape:label="Layer 1"
     inkscape:groupmode="layer"
     id="layer1"
     transform="translate(0,-244.08332)">
    <circle
       style="opacity:1;fill:none;fill-opacity:1;stroke:#d92e2e;stroke-width:1.85208333;stroke-miterlimit:4;stroke-dasharray:none;stroke-opacity:1"
       id="path4518"
       cx="26.458334"
       cy="270.54166"
       r="24.422628" />
    <g
       aria-label="$15"
       transform="matrix(0.26458333,0,0,0.26458333,-0.12501833,246.55115)"
       style="font-style:normal;font-weight:normal;font-size:40px;line-height:1.25;font-family:sans-serif;letter-spacing:0px;word-spacing:0px;fill:#d92e2e;fill-opacity:1;stroke:none"
       id="flowRoot4520">
      <path
         d="m 53.570116,117.31107 q -4.216667,-0.69667 -8.066667,-2.42 -3.813334,-1.76 -6.453334,-4.21667 l 3.52,-5.09666 q 0.44,-0.62334 1.173334,-1.02667 0.77,-0.44 1.613333,-0.44 0.88,0 1.796667,0.47667 0.916666,0.44 1.98,1.1 1.1,0.66 2.383333,1.35666 1.283334,0.66 2.933334,1.1 l 1.356666,-13.859997 q -2.64,-0.733334 -5.243333,-1.723334 -2.603334,-0.99 -4.693334,-2.676667 -2.09,-1.686666 -3.41,-4.29 -1.283333,-2.603333 -1.283333,-6.526667 0,-2.896666 1.173333,-5.646666 1.173334,-2.750001 3.41,-4.950001 2.273334,-2.2 5.573334,-3.593333 3.3,-1.43 7.553333,-1.65 l 0.403334,-4.07 q 0.07333,-1.026667 0.88,-1.833334 0.843333,-0.843333 2.126666,-0.843333 h 4.180001 l -0.733334,7.223334 q 3.96,0.733333 6.820001,2.383333 2.86,1.613333 4.84,3.483333 l -2.786667,4.070001 q -0.623333,0.916666 -1.283333,1.356666 -0.623334,0.403334 -1.503334,0.403334 -0.586667,0 -1.32,-0.256667 -0.733333,-0.256667 -1.613333,-0.623333 -0.88,-0.403334 -1.906667,-0.843334 -0.99,-0.44 -2.126667,-0.77 l -1.283333,13.016667 q 1.76,0.513334 3.52,1.136667 1.76,0.586667 3.373333,1.393333 1.650001,0.77 3.043334,1.796667 1.43,1.026667 2.456667,2.42 1.063333,1.393334 1.65,3.226667 0.586666,1.796667 0.586666,4.106664 0,3.48334 -1.173333,6.56334 -1.173333,3.04333 -3.446667,5.39 -2.273333,2.34666 -5.573333,3.85 -3.3,1.46666 -7.553334,1.79666 l -0.44,4.58334 q -0.07333,1.02666 -0.916667,1.83333 -0.806666,0.84333 -2.09,0.84333 h -4.18 z m 13.86,-15.62 q 0,-2.090001 -1.356667,-3.336667 -1.32,-1.246667 -3.52,-2.09 L 61.380116,108.3644 q 6.05,-1.06333 6.05,-6.67333 z M 51.883449,77.967735 q 0,2.163334 1.356667,3.520001 1.393333,1.32 3.63,2.236666 l 1.1,-11.073333 q -1.686667,0.256666 -2.86,0.77 -1.136667,0.476666 -1.87,1.173333 -0.696667,0.696667 -1.026667,1.576667 -0.33,0.843333 -0.33,1.796666 z"
         style="font-style:normal;font-variant:normal;font-weight:900;font-stretch:normal;font-size:73.33333588px;font-family:Lato;-inkscape-font-specification:'Lato Heavy';text-align:center;text-anchor:middle;fill:#d92e2e;fill-opacity:1"
         id="path4559"
         inkscape:connector-curvature="0" />
      <path
         d="M 88.262511,108.9144 H 98.529178 V 81.964402 q 0,-1.98 0.11,-4.143333 l -6.05,5.023333 q -0.806667,0.623334 -1.613333,0.77 -0.770001,0.11 -1.466667,0 -0.696667,-0.146666 -1.246667,-0.476666 -0.55,-0.366667 -0.806667,-0.733334 l -3.593333,-4.766667 16.646669,-13.97 h 9.38667 V 108.9144 h 8.8 v 8.21334 H 88.262511 Z"
         style="font-style:normal;font-variant:normal;font-weight:900;font-stretch:normal;font-size:73.33333588px;font-family:Lato;-inkscape-font-specification:'Lato Heavy';text-align:center;text-anchor:middle;fill:#d92e2e;fill-opacity:1"
         id="path4561"
         inkscape:connector-curvature="0" />
      <path
         d="m 159.91491,68.397735 q 0,1.173333 -0.36667,2.126667 -0.36667,0.953333 -1.17333,1.686667 -0.77,0.696666 -2.05334,1.1 -1.28333,0.366666 -3.08,0.366666 h -12.76 l -1.50333,8.836667 q 1.50333,-0.256666 2.89667,-0.366666 1.39333,-0.146667 2.71333,-0.146667 4.21667,0 7.44333,1.283333 3.22667,1.283334 5.42667,3.52 2.2,2.2 3.3,5.206667 1.13667,2.97 1.13667,6.38 0,4.290001 -1.54,7.846671 -1.50334,3.52 -4.21667,6.08666 -2.71333,2.56667 -6.49,3.99667 -3.74,1.39333 -8.21333,1.39333 -2.60334,0 -4.98667,-0.55 -2.34667,-0.55 -4.43667,-1.46666 -2.05333,-0.95334 -3.81333,-2.16334 -1.76,-1.24666 -3.19,-2.64 l 3.52,-4.69333 q 0.55,-0.73333 1.28333,-1.1 0.73334,-0.40333 1.57667,-0.40333 1.1,0 2.05333,0.62333 0.99,0.58667 2.12667,1.32 1.17333,0.69667 2.71333,1.28333 1.54,0.58667 3.81334,0.58667 2.27333,0 3.88666,-0.73333 1.61334,-0.77 2.60334,-2.05334 1.02666,-1.32 1.46666,-3.04333 0.47667,-1.76 0.47667,-3.740001 0,-3.886666 -2.2,-5.903333 -2.2,-2.053333 -6.23333,-2.053333 -3.59334,0 -7.04,1.356666 l -7.04,-1.906667 4.54666,-26.73 h 27.35334 z"
         style="font-style:normal;font-variant:normal;font-weight:900;font-stretch:normal;font-size:73.33333588px;font-family:Lato;-inkscape-font-specification:'Lato Heavy';text-align:center;text-anchor:middle;fill:#d92e2e;fill-opacity:1"
         id="path4563"
         inkscape:connector-curvature="0" />
    </g>
  </g>
</svg>
